<svg xmlns="http://www.w3.org/2000/svg" viewBox="0 0 640 400" width="640" height="400"><defs>
<linearGradient id="fade" x1="0" y1="0" x2="0" y2="1">
<stop offset="0" stop-color="#E6212F" stop-opacity=".16"/><stop offset="1" stop-color="#E6212F" stop-opacity="0"/></linearGradient>
<pattern id="grid" width="26" height="26" patternUnits="userSpaceOnUse">
<path d="M26 0H0V26" fill="none" stroke="#F1EFEC" stroke-opacity=".05" stroke-width="1"/></pattern>
</defs><rect width="640" height="400" fill="#0B0D10"/><rect width="640" height="400" fill="url(#grid)"/><rect width="640" height="400" fill="url(#fade)"/><ellipse cx="172" cy="120" rx="86" ry="25" fill="#12151A" stroke="#E6212F" stroke-width="1.5" opacity="1.00"/><rect x="86" y="120" width="172" height="44" fill="#12151A" opacity="0.90"/><line x1="86" y1="120" x2="86" y2="164" stroke="#E6212F" stroke-width="1.5" opacity=".7"/><line x1="258" y1="120" x2="258" y2="164" stroke="#E6212F" stroke-width="1.5" opacity=".7"/><ellipse cx="172" cy="184" rx="86" ry="25" fill="#12151A" stroke="#E6212F" stroke-width="1.5" opacity="0.82"/><rect x="86" y="184" width="172" height="44" fill="#12151A" opacity="0.70"/><line x1="86" y1="184" x2="86" y2="228" stroke="#E6212F" stroke-width="1.5" opacity=".7"/><line x1="258" y1="184" x2="258" y2="228" stroke="#E6212F" stroke-width="1.5" opacity=".7"/><ellipse cx="172" cy="248" rx="86" ry="25" fill="#12151A" stroke="#E6212F" stroke-width="1.5" opacity="0.64"/><rect x="86" y="248" width="172" height="44" fill="#12151A" opacity="0.50"/><line x1="86" y1="248" x2="86" y2="292" stroke="#E6212F" stroke-width="1.5" opacity=".7"/><line x1="258" y1="248" x2="258" y2="292" stroke="#E6212F" stroke-width="1.5" opacity=".7"/><rect x="328" y="96" width="240" height="208" fill="#12151A" stroke="#3A3F46"/><rect x="328" y="96" width="240" height="34" fill="#E6212F"/><g stroke="#F1EFEC" stroke-opacity=".12" stroke-width="1"><line x1="328" y1="165" x2="568" y2="165"/><line x1="328" y1="200" x2="568" y2="200"/><line x1="328" y1="235" x2="568" y2="235"/><line x1="328" y1="270" x2="568" y2="270"/><line x1="328" y1="305" x2="568" y2="305"/><line x1="408" y1="96" x2="408" y2="304"/><line x1="488" y1="96" x2="488" y2="304"/></g></svg>